<?xml version="1.0" encoding="utf-8"?>
<!-- Generator: Adobe Illustrator 23.0.2, SVG Export Plug-In . SVG Version: 6.00 Build 0)  -->
<svg version="1.1" id="Capa_1" xmlns="http://www.w3.org/2000/svg" xmlns:xlink="http://www.w3.org/1999/xlink" x="0px" y="0px"
	 viewBox="0 0 512 512" enable-background="new 0 0 512 512" xml:space="preserve">
<defs> 
	<style> 
		path
		{
			animation: chicken 5s linear;
			stroke-dasharray: 900;
		}

		@keyframes chicken
		{
			0%{ transform: scale(1.0);
				stroke: red;
				fill: red;
				stroke-dasharray: 5 10;
				stroke-dashoffset: 900;}

			25%{ transform: scale(1.0);
				 stroke: green;
				 fill: green;}

			50%{ transform: scale(1.0);
				 stroke: purple;
				 fill: purple;}

			75%{ transform: scale(1.5);
				 stroke-dashoffset: 0;
				 stroke: orange;
				 fill: orange;}

			100%{  transform: scale(1.0);
				   stroke-dasharray: 0;
				   stroke:cyan;
				   fill: cyan; }
		}
	</style>
</defs>

<g>
	<path d="M149.6,153.5c0-14.1-11.5-25.6-25.6-25.6c-14.1,0-25.6,11.5-25.6,25.6s11.5,25.6,25.6,25.6
		C138.1,179.1,149.6,167.6,149.6,153.5z M124,162c-4.7,0-8.5-3.8-8.5-8.5c0-4.7,3.8-8.5,8.5-8.5c4.7,0,8.5,3.8,8.5,8.5
		C132.5,158.2,128.7,162,124,162z"/>
	<path d="M356,333.2h-9.6H252v13.2h94.6c-4.5,32.3-45.1,57.5-94.6,57.5c-52.5,0-95-28.4-95-63.5c0-2.5,0.2-4.9,0.6-7.2h-17.1
		c0,0.1,0,0.3,0,0.4c0,47.7,49.9,86.3,111.5,86.3s111.5-38.7,111.5-86.3c0-0.1,0-0.3,0-0.4H356z"/>
	<path d="M508,162v-8.5h-28.6c0,0,0,0,0,0h-48.2v0c-1.3,0-2.5,0.4-3.7,1.2L258.8,265.6l-10-19.2l-56.3-118.3
		c-5.3-11.7-13.6-21.6-23.7-29c23.6-8,40.6-30.3,40.6-56.6c0-4.7-3.8-8.5-8.5-8.5h-42.7c-32,0-58.2,25.3-59.7,57
		c-6.7,2.9-13,6.9-18.6,11.9c-10.1,8.9-17.3,20.2-21.1,32.8L6.9,158c-2.8,1.2-4.5,3.9-4.5,6.9c0,3,1.8,5.7,4.5,6.9l43,18.4l-18.7,8
		c-1.2,0.5-2,1.7-2,3.1c0,1.3,0.8,2.6,2,3.1l23.6,10.1c0.3,0.1,0.6,0.2,0.9,0.2v71c0.1,105.8,86.2,191.9,192,192
		c102.8,0,186.3-91.7,191.7-171.1c38.5-4.1,68.5-36.8,68.5-76.4v-8.5h-28.6C496.8,207.6,508,186.1,508,162z M116.3,85.2
		c4-19.4,21.2-34.1,41.8-34.1h33.3c-4,19.4-21.2,34.1-41.8,34.1h-18.5c-2.7-0.2-5.5-0.1-8.2,0H116.3z M54.8,153.7V176l-25.9-11.1
		L54.8,153.7z M52.8,206.3l-11.7-5l11.7-5V206.3z M490.3,238.8c-4.2,28.9-29.1,51.2-59.1,51.2h-8.5v8.5c0,73-80.7,162.1-174.9,162.1
		c-96.4-0.1-174.9-78.5-174.9-174.9V156.5c0-1.2,0-2.3,0.1-3.5c0.9-14.5,7.4-27.7,18.3-37.3c9.1-8,20.3-12.7,32.1-13.4h7.4
		c20.2,1.8,37.9,14.4,46.4,33l70.2,147.3c0.4,0.5,0.9,1,1.2,1.6c0.6,0.4,1.1,0.8,1.7,1.2c0.7,0.2,1.3,0.5,2,0.9v-0.1
		c2,0.7,4.3,0.5,6.2-0.8l174.6-114.8h57.5v0c-4.2,28.9-29.1,51.2-59.1,51.2v17.1H490.3z"/>
</g>
</svg>
