<svg xmlns="http://www.w3.org/2000/svg">
	<symbol id="chicken1" x="0px" y="0px" viewBox="0 0 512 512" enable-background="new 0 0 512 512">
		<g>
			<path d="M149.6,153.5c0-14.1-11.5-25.6-25.6-25.6c-14.1,0-25.6,11.5-25.6,25.6s11.5,25.6,25.6,25.6
							C138.1,179.1,149.6,167.6,149.6,153.5z M124,162c-4.7,0-8.5-3.8-8.5-8.5c0-4.7,3.8-8.5,8.5-8.5c4.7,0,8.5,3.8,8.5,8.5
							C132.5,158.2,128.7,162,124,162z"/>
			<path d="M356,333.2h-9.6H252v13.2h94.6c-4.5,32.3-45.1,57.5-94.6,57.5c-52.5,0-95-28.4-95-63.5c0-2.5,0.2-4.9,0.6-7.2h-17.1
							c0,0.1,0,0.3,0,0.4c0,47.7,49.9,86.3,111.5,86.3s111.5-38.7,111.5-86.3c0-0.1,0-0.3,0-0.4H356z"/>
			<path d="M508,162v-8.5h-28.6c0,0,0,0,0,0h-48.2v0c-1.3,0-2.5,0.4-3.7,1.2L258.8,265.6l-10-19.2l-56.3-118.3
							c-5.3-11.7-13.6-21.6-23.7-29c23.6-8,40.6-30.3,40.6-56.6c0-4.7-3.8-8.5-8.5-8.5h-42.7c-32,0-58.2,25.3-59.7,57
							c-6.7,2.9-13,6.9-18.6,11.9c-10.1,8.9-17.3,20.2-21.1,32.8L6.9,158c-2.8,1.2-4.5,3.9-4.5,6.9c0,3,1.8,5.7,4.5,6.9l43,18.4l-18.7,8
							c-1.2,0.5-2,1.7-2,3.1c0,1.3,0.8,2.6,2,3.1l23.6,10.1c0.3,0.1,0.6,0.2,0.9,0.2v71c0.1,105.8,86.2,191.9,192,192
							c102.8,0,186.3-91.7,191.7-171.1c38.5-4.1,68.5-36.8,68.5-76.4v-8.5h-28.6C496.8,207.6,508,186.1,508,162z M116.3,85.2
							c4-19.4,21.2-34.1,41.8-34.1h33.3c-4,19.4-21.2,34.1-41.8,34.1h-18.5c-2.7-0.2-5.5-0.1-8.2,0H116.3z M54.8,153.7V176l-25.9-11.1
							L54.8,153.7z M52.8,206.3l-11.7-5l11.7-5V206.3z M490.3,238.8c-4.2,28.9-29.1,51.2-59.1,51.2h-8.5v8.5c0,73-80.7,162.1-174.9,162.1
							c-96.4-0.1-174.9-78.5-174.9-174.9V156.5c0-1.2,0-2.3,0.1-3.5c0.9-14.5,7.4-27.7,18.3-37.3c9.1-8,20.3-12.7,32.1-13.4h7.4
							c20.2,1.8,37.9,14.4,46.4,33l70.2,147.3c0.4,0.5,0.9,1,1.2,1.6c0.6,0.4,1.1,0.8,1.7,1.2c0.7,0.2,1.3,0.5,2,0.9v-0.1
							c2,0.7,4.3,0.5,6.2-0.8l174.6-114.8h57.5v0c-4.2,28.9-29.1,51.2-59.1,51.2v17.1H490.3z"/>
		</g>
	</symbol>

	<symbol id="cow1" x="0px" y="0px" viewBox="0 0 33 33" enable-background="new 0 0 33 33" xml:space="preserve">
		<g>
			<path d="M5.3,7C4.9,7,4.6,7.3,4.6,7.7c0,0.4,0.3,0.7,0.7,0.7c0.4,0,0.7-0.3,0.7-0.7C6.1,7.3,5.7,7,5.3,7z M5.1,7.7
							c0-0.1,0.1-0.3,0.3-0.3c0.1,0,0.3,0.1,0.3,0.3C5.6,8,5.1,8,5.1,7.7z"/>
			<path d="M32.5,19.7c-0.2-0.2-0.5-0.3-0.8-0.4c0-0.4,0-1.3-0.1-2.2c0-1.4,0-2.9-0.1-3.9c-0.2-2-2-3.6-3.2-4.1
							c-0.9-1.1-2.2-1.9-3.7-2.1c-1.5-0.3-2.5,0.1-3.5,0.5c-0.6,0.2-1.1,0.4-1.6,0.4c-1.1,0-2.8-0.1-4-0.2c0,0,0,0,0,0
							c-0.3,0-0.5,0-0.7-0.1c-0.1,0-0.3-0.1-0.4-0.1c-1.1-0.3-2.8-1.1-3.5-1.6c0.4-0.5,0.6-1.1,0.6-1.6c0-0.7-0.3-1.3-0.8-1.4
							C10.5,2.8,10,2.7,9.5,3.2C9.3,3.4,9,3.7,8.7,3.9c-1-1-2.2-0.7-2.9-0.5C5,3.6,4.4,4.3,3.9,5.1C3.7,5.3,3.6,5.5,3.4,5.6
							C3.1,6.1,2.3,6.8,1.7,7.4c-1,1-1.4,1.4-1.6,1.6c-0.5,0.9,0.8,2.1,1,2.3c0.4,0.3,1.1,0.7,1.7,0.7c0.1,0,0.2,0,0.3,0
							c0.1,0,0.2-0.1,0.3-0.1c0.5-0.2,1.2-0.5,2-0.2c0.3,0.1,0.6,0.1,0.9,0.1c0,0,0,0,0,0c0.6,0.5,0.8,1.1,1.2,2.1
							c0.1,0.4,0.3,0.8,0.5,1.4c0.4,1.1,0.7,2,0.9,2.9c0.1,0.6,0.3,1.3,0.5,1.9c0.5,1.5,1.8,2,2.8,2c0.2,0,0.3,0,0.4,0
							c0.2,0.7,0.3,1.8,0.3,2.8c0,1.1-0.4,4.6-0.4,4.6c0,0.1,0,0.3,0.1,0.4c0.1,0.1,0.2,0.2,0.4,0.2H15c0.3,0,0.5-0.2,0.5-0.5
							c0-0.3,0.1-2.8,0.3-4.6c0.1-0.6,0.2-1.5,0.2-2.4c0-0.3,0-0.5,0.1-0.8c0.7-0.5,1.9-1.1,3-1.1c1.9,0,3.8,0.6,4.2,1.2
							c0,0.1,0.1,0.1,0.2,0.2l0.1,0.3c0.2,0.8,0.4,1.9,0.5,2.8c0.1,0.8-0.1,3.5-0.2,4.4c0,0.1,0,0.3,0.1,0.4c0.1,0.1,0.2,0.2,0.4,0.2H26
							c0.1,0,0.3-0.1,0.4-0.2c0.1-0.1,0.1-0.2,0.1-0.4c0-0.1,0-0.9,0.1-1.6c0.1-1,0.1-2.1,0.1-2.6c0-0.8,0-3.6,0.1-4.2c0-0.2,0.6-1,1-1.5
							c0.4-0.6,0.9-1.2,1.2-1.7c0.8-1.4,1-4.4,0.6-6.5c0-0.2-0.1-0.3-0.1-0.5c0.6,0.6,1.1,1.4,1.2,2.2c0.1,1,0.1,2.4,0.1,3.8
							c0,1,0,1.8,0.1,2.3c-0.4,0.1-0.6,0.4-0.7,0.6c-0.5,0.9,0,2.3,0.3,2.9c0.4,1,0.8,1.5,0.8,1.6c0.1,0.1,0.2,0.2,0.4,0.2c0,0,0,0,0,0
							c0.1,0,0.3-0.1,0.4-0.2c0,0,0.8-1,1-2.5C33,21.3,33.1,20.3,32.5,19.7z M22.8,8C22.8,8,22.8,8,22.8,8C22.8,8,22.8,8,22.8,8z
							 M28,17.6c-0.3,0.5-0.7,1-1.1,1.6c-0.7,0.9-1.1,1.5-1.1,2c0,0.3-0.1,1-0.1,1.8c-0.3,0-0.7,0.3-0.7,0.5c0,0.3,0.5,0.7,0.6,1.1
							c0,0,0,0.1,0.1,0.1c0,0.4,0,0.7,0,0.9c0,0.4,0,1.5-0.1,2.5c0,0.5,0,0.9-0.1,1.1h-0.6c0-0.2,0-0.4,0.1-0.7c0.2,0,0.5-0.5,0.4-0.7
							c0-0.1-0.2-0.2-0.3-0.2c0.1-1,0.1-2,0-2.5c-0.1-0.9-0.3-2-0.5-2.8l-0.1-0.6c-0.1-0.3-0.3-0.7-0.6-1.2c-0.6-1-1.4-2.3-1.2-3.6
							c0-0.3-0.2-0.5-0.4-0.6c-0.3,0-0.5,0.2-0.6,0.4c-0.2,1.3,0.4,2.6,0.9,3.6c-1-0.4-2.4-0.6-3.6-0.6c-1,0-2.1,0.4-2.9,0.8
							c0.1-0.8,0.2-1.5,0.3-1.7c0.1-0.3-0.1-0.5-0.3-0.6c-0.3-0.1-0.5,0.1-0.6,0.3c-0.1,0.4-0.3,1.4-0.4,3c0,0,0,0,0,0c0,0,0,0,0,0
							c-0.1-0.4-0.9,0-0.9,0.4c0,0.3,0.5,0.7,0.6,1.1c0,0.1,0.1,0.2,0.1,0.2c-0.1,0.6-0.1,1.2-0.2,1.6c-0.2,1.5-0.3,3.3-0.3,4.3h-0.8
							c0-0.1,0-0.3,0-0.4c0.2,0,0.6-0.1,0.6-0.3c0.1-0.3-0.2-0.9-0.2-1.2c0-0.3-0.1-0.5-0.2-0.3c0.1-0.8,0.1-1.5,0.1-1.9
							c0-1.2-0.3-2.9-0.6-3.7c-0.1-0.3-0.4-0.6-0.6-1c-0.4-0.6-0.9-1.4-1-1.9c0-0.3-0.3-0.5-0.6-0.4c-0.3,0-0.5,0.3-0.4,0.6
							c0.1,0.7,0.7,1.5,1.2,2.3c0.1,0.1,0.2,0.3,0.3,0.4c-0.6,0-1.5-0.2-1.9-1.3c-0.2-0.6-0.3-1.2-0.5-1.8c-0.2-0.9-0.5-1.9-0.9-3.1
							c-0.2-0.5-0.4-0.9-0.5-1.3c-0.3-0.8-0.5-1.5-1-2c1-0.4,2-1.1,2.7-2.1C10.3,9.4,10.2,9,10,8.9S9.5,8.8,9.3,9
							c-0.9,1.4-2.7,2.2-3.6,1.8C4.6,10.4,3.6,10.8,3,11c-0.1,0-0.2,0.1-0.2,0.1c-0.2,0-0.7-0.2-1.1-0.5c-0.1-0.1-0.2-0.2-0.2-0.2
							c0.1-0.2,0.2-0.4,0.2-0.7c0-0.3-0.1-0.5-0.2-0.7c0.3-0.3,0.6-0.6,0.8-0.8c0.7-0.7,1.5-1.4,1.8-1.9c0.1-0.1,0.1-0.2,0.2-0.2
							C4.6,6.3,5,5.9,5.2,5.6c0.3-0.3,1.5,0,1.5-0.8c0-0.3-0.1-0.4-0.2-0.5c0.5-0.1,1-0.1,1.4,0.2C7.8,4.6,7.7,4.6,7.6,4.7
							C7.4,4.8,7.3,5.1,7.5,5.4c0.1,0.2,0.5,0.3,0.7,0.2c0.4-0.2,1.4-1,2.1-1.6c0.1-0.1,0.1-0.1,0.1-0.1c0,0.1,0.1,0.2,0.1,0.5
							c0,0.6-0.7,1.6-1.5,1.7C8.7,6.2,8.6,6.4,8.6,6.7c0.1,0.2,0.3,0.4,0.5,0.4c0,0,0.1,0,0.1,0C9.6,7,9.9,6.8,10.2,6.6
							c0.7,0.5,2.8,1.5,4,1.8c0.3,0.1,0.7,0.1,1,0.2c-0.4,0.2-0.6,0.5-0.5,1.1c0.2,2.1,3.4,2.7,6,0.7c2.6-2,7.4,1.7,5.8-0.9
							c-0.3-0.6-0.7-0.9-1.2-1.1c1.6,0.6,2.8,1.9,3.1,3.5C28.9,13.9,28.6,16.6,28,17.6z M31.9,22c-0.1,0.5-0.2,0.9-0.4,1.3
							c-0.1-0.2-0.2-0.4-0.3-0.7c-0.4-0.8-0.5-1.7-0.3-2c0-0.1,0.1-0.2,0.3-0.2c0.1,0,0.1,0,0.2,0c0.2,0,0.3,0,0.4,0.1
							C31.9,20.6,32.1,20.9,31.9,22z"/>
			<path d="M12.7,12.6c-1.6-0.3-2.3,0.8-2.4,2s0.4,1.4,1.3,1.2c0.9-0.2,0.3-1.5,1.6-1.3S14.3,12.9,12.7,12.6z"/>
			<path d="M24.2,13.2c-0.9-0.6-2.9-0.3-2.9,1.2c0,1.5,1.9,0.9,2.8,1.2c0.9,0.4,2.6,0.7,2.8-0.5C27,13.9,25.1,13.8,24.2,13.2z"/>
			<path d="M17.3,15.5c-0.9,0-2.2,0.2-2.2,0.9c-0.1,0.7,0.6,1.3,1.3,1c0.7-0.3,1.8-0.3,2.2-0.9C19.1,16,18.2,15.5,17.3,15.5z"/>
		</g>
	</symbol>

	<symbol id="horse1" x="0px" y="0px" viewBox="0 0 33.5 33.5" enable-background="new 0 0 33.5 33.5" xml:space="preserve">
		<g>
			<path d="M6.3,3.8c-0.4,0-0.7,0.3-0.7,0.7s0.3,0.7,0.7,0.7S7,4.9,7,4.5S6.7,3.8,6.3,3.8z M6,4.5c0-0.1,0.1-0.3,0.3-0.3
							s0.3,0.1,0.3,0.3C6.5,4.8,6,4.8,6,4.5z"/>
			<path d="M32.4,21.6c0.6-1.9,1.5-6.4-0.1-8.3c-1.4-1.8-3.2-1.8-4.5-1.7c-0.3-0.3-0.7-0.6-1.1-0.9c-1.7-1.1-4.1-0.7-6.2-0.4
							c-0.1,0-0.2,0-0.3,0c-3.3-0.2-4.4-2.3-5.2-4.2l-0.1-0.2c-0.7-1.8-1.2-3.1-2.8-3.9c0-0.1,0.1-0.3,0.1-0.4c0.1-0.6,0-1-0.2-1.4
							C12.1,0.1,11.9,0,11.8,0C11,0,10.2,0.5,9.7,0.9C8.1,0.3,6.2,0.6,5.2,1.8C4.3,2.8,2.5,4.4,1.6,5C0.8,5.4,0.4,5.9,0.3,6.4
							C0.2,6.7,0.2,7,0.4,7.2C0.5,7.3,1.7,9,2.8,9c0.1,0,0.1,0,0.2,0C3.3,8.9,3.7,8.7,4,8.5C4.5,8.3,4.9,8,5.4,8c0.1,0,0.7,0,1.3-0.1
							c0.9,1.9,0.7,3.5,0.5,5.3c-0.1,0.7-0.1,1.4-0.2,2.1c-0.1,3.2,1.5,4.5,2.4,5.3c0,0,0,0,0,0c0.2,1,0.4,2,0.7,2.6
							c0.8,1.9,1.2,3.5,1.2,4.4c0,1.3-0.5,5.2-0.5,5.3c0,0.1,0,0.3,0.1,0.4c0.1,0.1,0.2,0.2,0.4,0.2h2.1c0.1,0,0.3-0.1,0.4-0.2
							C14,33.2,14,33.1,14,33c0-0.4,0-1.1,0-2c0-2.1,0-4.9,0-5.8c0-0.6,0.2-2,0.4-3.3c0.6,0.1,1.9,0.3,3.4,0.3c1.3,0,2.7-0.2,3.9-0.6
							c0.5,1.1,1.1,1.8,1.6,2.3l0.2,0.2c0.7,0.7,0.7,1.9,0.7,3.2c0,1.3-0.3,5.7-0.3,5.7c0,0.1,0,0.3,0.1,0.4c0.1,0.1,0.2,0.2,0.4,0.2h2
							c0.3,0,0.5-0.2,0.5-0.5c0-0.5-0.1-3.4-0.4-5.3c-0.2-1.7,0.1-3.7,0.8-5.2l0.3-0.6c0.2-0.5,0.5-1.1,0.8-1.8c-0.1,0.3-0.1,0.7-0.2,1
							c-0.2,1,0.2,2.2,1,3.1c0.9,1,2.1,1.5,3.2,1.5c0.1,0,0.1,0,0.2,0c0.2,0,0.4-0.2,0.4-0.4c0.1-0.2,0-0.4-0.2-0.5
							C32.6,24.6,31.7,23.7,32.4,21.6z M11.9,2.9c1.2,0.6,1.6,1.6,2.3,3.4l0.1,0.2c0.5,1.2,1.2,3,3.1,4.1c-1.1-0.1-2-0.4-2.3-0.6
							c-0.7-0.5-1.8-1.8-2.2-2.9l-0.2-0.7c-0.4-1.4-0.7-2.4-1-2.9C11.7,3.2,11.8,3.1,11.9,2.9z M28.4,16.6c-0.3,2-1,3.5-1.6,4.8l-0.3,0.6
							c-0.8,1.7-1.1,3.9-0.9,5.7c0.2,1.4,0.3,3.2,0.3,4.2H25c0.1-1.4,0.2-4,0.2-4.9c0-1.4-0.1-2.8-1-3.8L24,23.1
							c-0.8-0.9-2.1-2.2-1.9-5.7c0-0.3-0.2-0.5-0.5-0.5c-0.3,0-0.5,0.2-0.5,0.5c-0.1,1.3,0.1,2.4,0.3,3.2c-1.8,0.8-5.1,0.6-6.8,0.3
							c0,0,0-0.1,0-0.1c0.1-0.6,0.2-1.2,0.3-1.6c0-0.3-0.2-0.5-0.4-0.6c-0.3,0-0.5,0.2-0.6,0.4c-0.1,0.4-0.2,1-0.3,1.6
							c-0.3,1.7-0.6,3.8-0.6,4.7c0.1,0.8,0,3.6,0,5.7c0,0.3,0,0.6,0,0.9h-1c0.2-1.3,0.4-3.3,0.4-4.2c0-1.4-0.7-3.4-1.3-4.8
							c-0.5-1.1-0.9-3.6-0.8-5.2c0-0.3-0.2-0.5-0.5-0.5c-0.3,0-0.5,0.2-0.5,0.5c0,0.5,0,1.1,0,1.6c-0.7-0.7-1.4-1.8-1.3-3.8
							c0-0.7,0.1-1.4,0.2-2c0.2-1.9,0.4-3.6-0.5-5.6C8.4,7.5,9,7.2,9.4,6.6c0.2-0.2,0.1-0.5-0.1-0.7C9,5.8,8.7,5.8,8.6,6
							C8,6.8,6.4,7.1,5.4,7C4.7,7,4,7.3,3.5,7.6C3.2,7.8,3,7.9,2.8,8C2.5,8,1.7,7.3,1.2,6.6c0-0.1,0.1-0.3,0.8-0.8
							c1.1-0.6,3.1-2.5,3.8-3.4c0.6-0.6,1.7-1.1,2.9-0.8c0,0-0.1,0-0.1,0.1C8.6,1.9,8.5,2.2,8.7,2.5c0.2,0.2,0.5,0.3,0.7,0.1
							c0.1-0.1,0.2-0.2,0.3-0.3c0.4-0.4,1-1,1.7-1.2c0,0.1,0,0.2,0,0.4c-0.1,0.7-0.8,1.8-1.7,2.4C9.5,4,9.4,4.3,9.6,4.5
							C9.7,4.7,9.8,4.8,10,4.8c0.1,0,0.2,0,0.3-0.1c0.2-0.1,0.4-0.3,0.6-0.5c0.3,0.6,0.6,1.6,0.8,2.4l0.2,0.7c0.4,1.3,1.7,2.8,2.5,3.4
							c0.8,0.6,2.8,1.1,5.1,0.8c0.4-0.1,0.8-0.1,1.3-0.2c1.8-0.3,4.1-0.7,5.4,0.2C27.9,12.7,28.7,14.5,28.4,16.6z M30.1,23.5
							c-0.4-0.4-1-1.2-0.8-2.2c0.4-2.3,0.6-3.8,0.1-4.7c0-0.3,0.1-0.6,0.1-0.8c1.7,1.9,1,3.1,1,5.8c0.1-0.1,0.2-0.3,0.3-0.4
							c0-2.8,0.9-3.7-1.3-6c0-0.5-0.1-1-0.3-1.4c2.5,1,2.1,2.2,2.3,4.5c0.1-0.2,0.2-0.4,0.3-0.6c-0.2-2.1,0.3-3.2-2.8-4.3
							c-0.1-0.3-0.3-0.6-0.4-0.8c1,0,2.1,0.3,3,1.4c1.1,1.4,0.7,5.2-0.1,7.4c-0.5,1.5-0.3,2.5,0,3.2C31,24.3,30.5,24,30.1,23.5z"/>
		</g>
	</symbol>
				
	<symbol id="pig1" x="0px" y="0px" viewBox="0 0 512 512" enable-background="new 0 0 512 512" xml:space="preserve">
		<g>
			<path d="M155.5,193.6l20.1-20.4c11-10.9,25.5-17,41-17.2l-0.2-17.1c-20,0.2-38.7,8.1-52.9,22.3l-26.7,27.1
							c-1.6,1.6-2.5,3.8-2.4,6.1c0,2.3,1,4.5,2.7,6c1.7,1.6,3.4,3.1,5.3,4.6c11.7,9.1,27.5,13.5,43.5,13.5c19.9,0,40.4-6.8,54.1-20
							l-11.8-12.3C210.3,203.4,175.4,206.5,155.5,193.6z"/>
			<path d="M512,213.3c0-65.9-53.6-119.5-119.5-119.5H195.1c0,0,0,0,0,0c-29,0-56.7,10-78.9,27.3c-12-11.2-27.7-17.8-44.6-18.8H34.1
							c-4.7,0-8.5,3.8-8.5,8.5c0,20.7,3.5,46.1,30.5,58.9c0.4,0.2,0.7,0.3,1.1,0.4l18,5.6l-25.7,54C42.1,245.8,26,256,8.5,256
							c-4.7,0-8.5,3.8-8.5,8.5v42.7c0,4.3,3.1,7.9,7.3,8.4l109.2,15.6c1.7,0.2,2.9,1.7,2.9,3.3v75c0,4.7,3.8,8.5,8.5,8.5h34.1
							c4.1,0,7.6-2.9,8.4-6.9l14-70c0.4-1.8,2.2-3.1,4.8-2.4c29.3,12.9,60.3,19.4,92.3,19.6c76.8,0,114.1-26.8,123.2-34.6
							c0.3,0.1,0.5,0.3,0.8,0.4c12.4,6.8,23.8,15.3,33.9,25l2,2l-23.7,41.4c-1.4,2.6-2.2,5.4-2.2,8.3c0,9.4,7.6,17.1,17,17.1h28
							c2.8,0,5.3-1.3,6.9-3.6l42.7-59.7c2-2.8,2.1-6.6,0.3-9.5c-10.3-16.2-14.2-35.5-10.9-54.3c0.5-2.6,1.4-5.9,2.3-9.3
							c6.5-20.6,9.8-42,10-63.7V213.3L512,213.3z M42.9,119.5l28.2,0c11.9,0.7,23.3,5.4,32.3,13.2c-8,8.2-14.9,17.5-20.6,27.7l-20-6.2
							C50.2,148,44.2,137.9,42.9,119.5z M456.4,401.1l-23.6,0l26.9-47c1.9-3.3,1.3-7.5-1.4-10.3l-6.8-6.8c-11.3-10.9-24-20.2-37.8-27.9
							c-17.2-9-28.3-25.9-29.7-45.3l-17,1.3c1.4,18.9,9.9,36,23.3,48.3c-11.7,8.4-45.6,27.9-108.7,27.9c-29.6-0.1-58.4-6.2-85.5-18.1
							c-1.3-0.6-2.8-1-4.2-1.3c-11.1-2.3-21.9,4.9-24.2,16l-12.6,63.2h-18.6v-66.5c0-10.1-7.6-18.8-17.6-20.2L17.1,299.8v-27.3
							c20.7-2.9,38.9-16.1,47.9-35.3l29.9-62.9c18.3-38.5,57.6-63.4,100.2-63.4h0h197.5c56.5,0,102.4,45.9,102.4,102.4h0
							c0,4.7-3.8,8.5-8.5,8.5c-4.7,0-8.5-3.8-8.5-8.5v-17.1c0-14.1-11.5-25.6-25.6-25.6c-5.7,0-11,1.9-15.3,5.1l13.2,12.2
							c0.7-0.2,1.4-0.3,2.1-0.3c4.7,0,8.5,3.8,8.5,8.5v17.1c0,14.1,11.5,25.6,25.6,25.6c2.6,0,5.1-0.4,7.4-1.1c-1.4,13.2-4.1,26.2-8.1,39
							c-1.2,4.2-2.2,8.1-2.8,11.2c-3.7,21.2,0,42.8,10.3,61.4L456.4,401.1z"/>
			<circle cx="113" cy="239.7" r="11.1"/>
			<path d="M25.4,275.4c-2.2,0-3.9,3.6-3.9,8.1c0,4.5,1.8,8.1,3.9,8.1c2.2,0,3.9-3.6,3.9-8.1C29.4,279.1,27.6,275.4,25.4,275.4z"/>
		</g>
	</symbol>
				
	<symbol id="sheep1" x="0px" y="0px" viewBox="0 0 33 33" enable-background="new 0 0 33 33" xml:space="preserve">
		<g>
			<path d="M15,2.5C14.2,2,12.8,2,11.7,2.3c-0.7-0.9-2.1-1.6-3-1.8C8.1,0.3,7.4,0.6,6.5,1.2C5.9,0.8,4.4-0.1,3.5,0
							C2.8,0.1,2.2,0.7,2.2,1.4c0,0.4,0.1,1.2,1.6,1.7c-1.4,1.2-4,3.7-3.6,4.6c0.3,0.7,1.7,1.7,2.5,2c0.1,0,0.3,0.1,0.4,0.1
							c0.4,0,0.8-0.2,1.3-0.4C4.5,9.2,4.8,9.1,5.1,9C5,9.2,4.9,9.3,4.8,9.5c-0.5,0.8-1,1.9-1.2,2.9c0.1-0.1,0.3-0.2,0.5-0.2
							c0-0.5,0.3-0.9,1-0.9c0,0,0,0,0.1,0c0.2-0.4,0.4-0.9,0.6-1.2c0.2-0.4,0.4-0.7,0.5-1c1.4,0.1,3.1,0,4-0.8c0.4-0.4,0.6-0.9,0.7-1.5
							c0-0.3-0.2-0.5-0.5-0.5c-0.3,0-0.5,0.2-0.5,0.5c0,0.3-0.1,0.6-0.3,0.8C8.7,8.1,6.6,8,5.9,7.9c0,0-0.1,0-0.1,0c0,0,0,0,0,0
							c-0.7,0-1.4,0.3-1.9,0.5C3.5,8.6,3.1,8.8,3,8.7c-0.6-0.2-1.5-1-1.8-1.4c0.3-0.7,3-3.4,4.1-4.2l0.2-0.1C6.1,2.6,8,1.3,8.5,1.4
							C9.1,1.5,10,2,10.6,2.5c-0.2,0.1-0.3,0.1-0.4,0.1C9.9,2.8,9.8,3.1,9.9,3.3s0.4,0.4,0.7,0.3c0.9-0.4,3.2-0.8,3.9-0.3
							c0.2,0.2,0.2,0.3,0.2,0.4c-0.1,0.3-0.6,0.7-1.2,0.9c-1.1,0.2-1.7-0.2-1.7-0.2c-0.2-0.2-0.5-0.1-0.7,0.1C10.8,4.6,10.8,5,11,5.1
							c0,0,0.7,0.5,1.8,0.5c0,0,0,0,0,0c0,0,0,0.1,0.1,0.1c0.2,0.2,0.5,0.7,0.7,1.1c0.1,0.2,0.3,0.5,0.4,0.7c0.1,0,0.2-0.1,0.4-0.1
							c0.4,0,0.7,0.2,0.8,0.5c0,0,0.1,0,0.1,0c0-0.1,0-0.2,0-0.3c-0.2-0.2-0.5-0.8-0.8-1.2c-0.2-0.3-0.4-0.7-0.5-0.9
							c0.8-0.3,1.5-0.8,1.7-1.5C15.7,3.4,15.5,2.9,15,2.5z M4.8,2.3L4.8,2.3c-0.1,0-0.1,0-0.2,0c-1-0.2-1.5-0.6-1.5-0.8
							C3.2,1.2,3.4,1,3.6,1C4,1,4.9,1.3,5.6,1.8C5.3,1.9,5.1,2.1,4.8,2.3z"/>
			<path d="M32.7,14.3c-0.2-0.7-0.5-1.3-1-2c0,0,0,0.1-0.1,0.1c0.1,0.3,0,0.6-0.1,0.8c0.1,0.2,0.1,0.5,0,0.8c0.1,0.2,0.2,0.4,0.2,0.6
							c0.3,1.2,0,3.5-0.3,3.8c-0.2,0.1-0.6,0.2-0.9,0.1c0,0,0,0,0,0c0.2,0.3,0.2,0.7,0,1c0.5,0.1,1.1,0,1.5-0.3
							C32.9,18.6,33,15.6,32.7,14.3z"/>
			<path d="M28.1,24.1C28.1,24.1,28.1,24.1,28.1,24.1c-0.4,0.4-0.8,0.4-1.1,0.2c-0.1,0.1-0.1,0.1-0.2,0.2c-0.8,1-1.6,2-1.7,3l0,0.4
							C25,29,24.8,31,24.6,32h-0.9c0-0.9,0.1-2.6,0.1-3.6c0-0.8-0.3-1.8-0.6-2.8c-0.1-0.2-0.1-0.4-0.2-0.6c-0.2,0.2-0.4,0.4-0.7,0.4
							c-0.1,0-0.1,0-0.2,0c0.1,0.2,0.1,0.4,0.2,0.6c0.3,0.9,0.6,1.9,0.6,2.5c0,1.3-0.1,4.1-0.1,4.1c0,0.1,0,0.3,0.1,0.4
							c0.1,0.1,0.2,0.2,0.4,0.2H25c0.2,0,0.4-0.1,0.5-0.3c0.3-0.9,0.5-3.3,0.7-4.7l0-0.4c0.1-0.6,0.8-1.6,1.5-2.4
							c0.3-0.4,0.6-0.8,0.9-1.2c-0.1,0-0.2,0-0.2,0C28.2,24,28.2,24,28.1,24.1z"/>
			<path d="M14.7,24.8c-0.2,0.4-0.3,0.7-0.4,1c-0.1,0.5-0.2,1.6-0.2,2.8c-0.1,1.2-0.2,2.7-0.3,3.4h-1.1c0.1-1,0.3-2.9,0.3-3.8V28
							c0-0.8,0-2-0.4-3.1c-0.1,0.1-0.3,0.1-0.5,0.1c-0.2,0-0.4-0.1-0.6-0.2c0.4,1,0.4,2.3,0.4,3.2v0.2c0,1.2-0.4,4.2-0.4,4.3
							c0,0.1,0,0.3,0.1,0.4c0.1,0.1,0.2,0.2,0.4,0.2h2.1c0.2,0,0.4-0.1,0.5-0.3c0.2-0.5,0.3-1.9,0.4-4c0.1-1.1,0.2-2.2,0.2-2.7
							c0-0.2,0.1-0.4,0.2-0.7c0,0,0,0,0,0C15.1,25.3,14.9,25.1,14.7,24.8z"/>
			<path d="M6.2,4.6C6.2,5,6.5,5.4,7,5.4c0.4,0,0.8-0.3,0.8-0.8c0-0.4-0.3-0.8-0.8-0.8C6.5,3.9,6.2,4.2,6.2,4.6z M7.2,4.6
							c0,0.3-0.5,0.3-0.5,0c0-0.1,0.1-0.2,0.2-0.2C7.1,4.4,7.2,4.5,7.2,4.6z"/>
			<path fill="none" stroke="orange" stroke-width="0.75" stroke-miterlimit="10" d="M31.6,13.2c0-2.1-1.5-3.9-3.5-4.3
							c-0.8-1.3-2.2-2.2-3.8-2.2c-1,0-2,0.4-2.7,1c-0.8-0.8-1.9-1.4-3.2-1.4c-1.3,0-2.4,0.6-3.3,1.5c-0.3-0.1-0.6-0.1-0.9-0.1
							c-1.5,0-2.9,0.8-3.7,2c-0.3-0.1-0.7-0.1-1-0.1c-1.2,0-2.3,0.5-3.1,1.3c-2.2,0.3-3.9,2.1-3.9,4.3c0,1.4,0.7,2.6,1.7,3.4
							c0.1,2.3,2,4.1,4.4,4.1c0,0,0,0,0.1,0c0.8,1.3,2.2,2.2,3.8,2.2c0.6,0,1.1-0.1,1.6-0.3c0.8,0.6,1.7,1,2.8,1c1,0,1.9-0.3,2.6-0.9
							c0.6,0.4,1.4,0.6,2.2,0.6c1.1,0,2.1-0.4,2.9-1.1c0.6,0.3,1.2,0.4,1.9,0.4c0.7,0,1.4-0.2,2.1-0.5c-0.4,0.2-1,0.4-1.6,0.4
							c-0.2,0-0.4,0-0.6-0.1c0,0-0.1,0-0.1,0c-0.8,0-1.4-0.2-1.9-0.6c0,0-0.1,0-0.1,0c-0.6,0.7-1.4,1.2-2.6,1.2c-0.8,0-1.5-0.2-2-0.6
							c-0.1,0-0.1,0.1-0.2,0.1c-0.2,0.2-0.5,0.3-0.8,0.4c-0.3,0.1-0.5,0.2-0.8,0.2c-0.3,0.1-0.7,0.2-1.1,0.2c-0.9,0-1.6-0.3-2.2-0.8
							c-0.2,0.1-0.5,0.1-0.8,0.1c-0.3,0.1-0.6,0.1-0.9,0.1c0,0,0,0-0.1,0c0,0,0,0,0,0c-0.1,0-0.1,0-0.1,0c-0.1,0-0.1,0-0.1,0
							c-1,0-1.7-0.3-2.2-0.8c-0.5-0.3-0.8-0.8-1.1-1.3c-0.1,0-0.2-0.1-0.3-0.1c-0.1,0-0.1,0-0.2,0c-1,0-1.7-0.3-2.3-0.8
							c-1.1-0.7-1.7-2-1.6-3.3c-1.7-0.8-2.2-2.9-1.5-4.5c0.2-0.7,0.6-1.4,1.3-1.8c0.3-0.3,0.6-0.6,1-0.7c0.5-0.3,1-0.4,1.6-0.4
							c0.3-0.4,0.7-0.7,1.2-0.9c0.5-0.2,1-0.4,1.6-0.4c0.4,0,0.8,0.1,1.1,0.2c0.5-1.1,1.5-1.9,3-1.9c0.5,0,0.9,0.1,1.3,0.2
							c0.5-1,1.5-1.8,3-1.8c1,0,1.7,0.3,2.3,0.8c0.4,0.2,0.8,0.4,1,0.7c0.6-0.6,1.4-1,2.5-1c0.6,0,1.1,0.1,1.5,0.3
							c0.5,0.1,0.9,0.3,1.2,0.5C27.3,8,27.8,8.5,28,9.2c0,0,0,0,0,0c0.9,0.1,1.6,0.5,2,1c0.2,0.1,0.3,0.3,0.4,0.5c0.9,1,1.1,2.6,0.5,3.9
							c-0.2,0.6-0.5,1.2-0.9,1.6c-0.3,0.3-0.6,0.6-1.1,0.8c0.6,0.5,1.1,1.1,1.3,1.8c0,0,0,0,0,0c0,0.1,0,0.1,0.1,0.2
							c0.6,1.4,0.4,3.3-0.9,4.3c-0.3,0.4-0.6,0.7-1,0.9c1.4-0.7,2.3-2.2,2.3-3.9c0-1.3-0.6-2.4-1.4-3.2C30.7,16.3,31.6,14.8,31.6,13.2z"/>
		</g>
	</symbol>

</svg>