<?xml version="1.0" encoding="utf-8"?>
<!-- Generator: Adobe Illustrator 23.0.2, SVG Export Plug-In . SVG Version: 6.00 Build 0)  -->
<svg version="1.1" id="Capa_1" xmlns="http://www.w3.org/2000/svg" xmlns:xlink="http://www.w3.org/1999/xlink" x="0px" y="0px"
	 viewBox="0 0 33 33" enable-background="new 0 0 33 33" xml:space="preserve">
<g>
	<path d="M15,2.5C14.2,2,12.8,2,11.7,2.3c-0.7-0.9-2.1-1.6-3-1.8C8.1,0.3,7.4,0.6,6.5,1.2C5.9,0.8,4.4-0.1,3.5,0
		C2.8,0.1,2.2,0.7,2.2,1.4c0,0.4,0.1,1.2,1.6,1.7c-1.4,1.2-4,3.7-3.6,4.6c0.3,0.7,1.7,1.7,2.5,2c0.1,0,0.3,0.1,0.4,0.1
		c0.4,0,0.8-0.2,1.3-0.4C4.5,9.2,4.8,9.1,5.1,9C5,9.2,4.9,9.3,4.8,9.5c-0.5,0.8-1,1.9-1.2,2.9c0.1-0.1,0.3-0.2,0.5-0.2
		c0-0.5,0.3-0.9,1-0.9c0,0,0,0,0.1,0c0.2-0.4,0.4-0.9,0.6-1.2c0.2-0.4,0.4-0.7,0.5-1c1.4,0.1,3.1,0,4-0.8c0.4-0.4,0.6-0.9,0.7-1.5
		c0-0.3-0.2-0.5-0.5-0.5c-0.3,0-0.5,0.2-0.5,0.5c0,0.3-0.1,0.6-0.3,0.8C8.7,8.1,6.6,8,5.9,7.9c0,0-0.1,0-0.1,0c0,0,0,0,0,0
		c-0.7,0-1.4,0.3-1.9,0.5C3.5,8.6,3.1,8.8,3,8.7c-0.6-0.2-1.5-1-1.8-1.4c0.3-0.7,3-3.4,4.1-4.2l0.2-0.1C6.1,2.6,8,1.3,8.5,1.4
		C9.1,1.5,10,2,10.6,2.5c-0.2,0.1-0.3,0.1-0.4,0.1C9.9,2.8,9.8,3.1,9.9,3.3s0.4,0.4,0.7,0.3c0.9-0.4,3.2-0.8,3.9-0.3
		c0.2,0.2,0.2,0.3,0.2,0.4c-0.1,0.3-0.6,0.7-1.2,0.9c-1.1,0.2-1.7-0.2-1.7-0.2c-0.2-0.2-0.5-0.1-0.7,0.1C10.8,4.6,10.8,5,11,5.1
		c0,0,0.7,0.5,1.8,0.5c0,0,0,0,0,0c0,0,0,0.1,0.1,0.1c0.2,0.2,0.5,0.7,0.7,1.1c0.1,0.2,0.3,0.5,0.4,0.7c0.1,0,0.2-0.1,0.4-0.1
		c0.4,0,0.7,0.2,0.8,0.5c0,0,0.1,0,0.1,0c0-0.1,0-0.2,0-0.3c-0.2-0.2-0.5-0.8-0.8-1.2c-0.2-0.3-0.4-0.7-0.5-0.9
		c0.8-0.3,1.5-0.8,1.7-1.5C15.7,3.4,15.5,2.9,15,2.5z M4.8,2.3L4.8,2.3c-0.1,0-0.1,0-0.2,0c-1-0.2-1.5-0.6-1.5-0.8
		C3.2,1.2,3.4,1,3.6,1C4,1,4.9,1.3,5.6,1.8C5.3,1.9,5.1,2.1,4.8,2.3z"/>
	<path d="M32.7,14.3c-0.2-0.7-0.5-1.3-1-2c0,0,0,0.1-0.1,0.1c0.1,0.3,0,0.6-0.1,0.8c0.1,0.2,0.1,0.5,0,0.8c0.1,0.2,0.2,0.4,0.2,0.6
		c0.3,1.2,0,3.5-0.3,3.8c-0.2,0.1-0.6,0.2-0.9,0.1c0,0,0,0,0,0c0.2,0.3,0.2,0.7,0,1c0.5,0.1,1.1,0,1.5-0.3
		C32.9,18.6,33,15.6,32.7,14.3z"/>
	<path d="M28.1,24.1C28.1,24.1,28.1,24.1,28.1,24.1c-0.4,0.4-0.8,0.4-1.1,0.2c-0.1,0.1-0.1,0.1-0.2,0.2c-0.8,1-1.6,2-1.7,3l0,0.4
		C25,29,24.8,31,24.6,32h-0.9c0-0.9,0.1-2.6,0.1-3.6c0-0.8-0.3-1.8-0.6-2.8c-0.1-0.2-0.1-0.4-0.2-0.6c-0.2,0.2-0.4,0.4-0.7,0.4
		c-0.1,0-0.1,0-0.2,0c0.1,0.2,0.1,0.4,0.2,0.6c0.3,0.9,0.6,1.9,0.6,2.5c0,1.3-0.1,4.1-0.1,4.1c0,0.1,0,0.3,0.1,0.4
		c0.1,0.1,0.2,0.2,0.4,0.2H25c0.2,0,0.4-0.1,0.5-0.3c0.3-0.9,0.5-3.3,0.7-4.7l0-0.4c0.1-0.6,0.8-1.6,1.5-2.4
		c0.3-0.4,0.6-0.8,0.9-1.2c-0.1,0-0.2,0-0.2,0C28.2,24,28.2,24,28.1,24.1z"/>
	<path d="M14.7,24.8c-0.2,0.4-0.3,0.7-0.4,1c-0.1,0.5-0.2,1.6-0.2,2.8c-0.1,1.2-0.2,2.7-0.3,3.4h-1.1c0.1-1,0.3-2.9,0.3-3.8V28
		c0-0.8,0-2-0.4-3.1c-0.1,0.1-0.3,0.1-0.5,0.1c-0.2,0-0.4-0.1-0.6-0.2c0.4,1,0.4,2.3,0.4,3.2v0.2c0,1.2-0.4,4.2-0.4,4.3
		c0,0.1,0,0.3,0.1,0.4c0.1,0.1,0.2,0.2,0.4,0.2h2.1c0.2,0,0.4-0.1,0.5-0.3c0.2-0.5,0.3-1.9,0.4-4c0.1-1.1,0.2-2.2,0.2-2.7
		c0-0.2,0.1-0.4,0.2-0.7c0,0,0,0,0,0C15.1,25.3,14.9,25.1,14.7,24.8z"/>
	<path d="M6.2,4.6C6.2,5,6.5,5.4,7,5.4c0.4,0,0.8-0.3,0.8-0.8c0-0.4-0.3-0.8-0.8-0.8C6.5,3.9,6.2,4.2,6.2,4.6z M7.2,4.6
		c0,0.3-0.5,0.3-0.5,0c0-0.1,0.1-0.2,0.2-0.2C7.1,4.4,7.2,4.5,7.2,4.6z"/>
</g>
<path fill="none" stroke="#000000" stroke-width="0.75" stroke-miterlimit="10" d="M31.6,13.2c0-2.1-1.5-3.9-3.5-4.3
	c-0.8-1.3-2.2-2.2-3.8-2.2c-1,0-2,0.4-2.7,1c-0.8-0.8-1.9-1.4-3.2-1.4c-1.3,0-2.4,0.6-3.3,1.5c-0.3-0.1-0.6-0.1-0.9-0.1
	c-1.5,0-2.9,0.8-3.7,2c-0.3-0.1-0.7-0.1-1-0.1c-1.2,0-2.3,0.5-3.1,1.3c-2.2,0.3-3.9,2.1-3.9,4.3c0,1.4,0.7,2.6,1.7,3.4
	c0.1,2.3,2,4.1,4.4,4.1c0,0,0,0,0.1,0c0.8,1.3,2.2,2.2,3.8,2.2c0.6,0,1.1-0.1,1.6-0.3c0.8,0.6,1.7,1,2.8,1c1,0,1.9-0.3,2.6-0.9
	c0.6,0.4,1.4,0.6,2.2,0.6c1.1,0,2.1-0.4,2.9-1.1c0.6,0.3,1.2,0.4,1.9,0.4c0.7,0,1.4-0.2,2.1-0.5c-0.4,0.2-1,0.4-1.6,0.4
	c-0.2,0-0.4,0-0.6-0.1c0,0-0.1,0-0.1,0c-0.8,0-1.4-0.2-1.9-0.6c0,0-0.1,0-0.1,0c-0.6,0.7-1.4,1.2-2.6,1.2c-0.8,0-1.5-0.2-2-0.6
	c-0.1,0-0.1,0.1-0.2,0.1c-0.2,0.2-0.5,0.3-0.8,0.4c-0.3,0.1-0.5,0.2-0.8,0.2c-0.3,0.1-0.7,0.2-1.1,0.2c-0.9,0-1.6-0.3-2.2-0.8
	c-0.2,0.1-0.5,0.1-0.8,0.1c-0.3,0.1-0.6,0.1-0.9,0.1c0,0,0,0-0.1,0c0,0,0,0,0,0c-0.1,0-0.1,0-0.1,0c-0.1,0-0.1,0-0.1,0
	c-1,0-1.7-0.3-2.2-0.8c-0.5-0.3-0.8-0.8-1.1-1.3c-0.1,0-0.2-0.1-0.3-0.1c-0.1,0-0.1,0-0.2,0c-1,0-1.7-0.3-2.3-0.8
	c-1.1-0.7-1.7-2-1.6-3.3c-1.7-0.8-2.2-2.9-1.5-4.5c0.2-0.7,0.6-1.4,1.3-1.8c0.3-0.3,0.6-0.6,1-0.7c0.5-0.3,1-0.4,1.6-0.4
	c0.3-0.4,0.7-0.7,1.2-0.9c0.5-0.2,1-0.4,1.6-0.4c0.4,0,0.8,0.1,1.1,0.2c0.5-1.1,1.5-1.9,3-1.9c0.5,0,0.9,0.1,1.3,0.2
	c0.5-1,1.5-1.8,3-1.8c1,0,1.7,0.3,2.3,0.8c0.4,0.2,0.8,0.4,1,0.7c0.6-0.6,1.4-1,2.5-1c0.6,0,1.1,0.1,1.5,0.3
	c0.5,0.1,0.9,0.3,1.2,0.5C27.3,8,27.8,8.5,28,9.2c0,0,0,0,0,0c0.9,0.1,1.6,0.5,2,1c0.2,0.1,0.3,0.3,0.4,0.5c0.9,1,1.1,2.6,0.5,3.9
	c-0.2,0.6-0.5,1.2-0.9,1.6c-0.3,0.3-0.6,0.6-1.1,0.8c0.6,0.5,1.1,1.1,1.3,1.8c0,0,0,0,0,0c0,0.1,0,0.1,0.1,0.2
	c0.6,1.4,0.4,3.3-0.9,4.3c-0.3,0.4-0.6,0.7-1,0.9c1.4-0.7,2.3-2.2,2.3-3.9c0-1.3-0.6-2.4-1.4-3.2C30.7,16.3,31.6,14.8,31.6,13.2z"/>
</svg>
